<svg width="23" height="23" viewBox="0 0 23 23" fill="none" xmlns="http://www.w3.org/2000/svg">
<path d="M4.75 17.2505C4.55109 17.2505 4.36032 17.3295 4.21967 17.4702C4.07902 17.6109 4 17.8016 4 18.0005C4 18.1994 4.07902 18.3902 4.21967 18.5309C4.36032 18.6715 4.55109 18.7505 4.75 18.7505H18.75C18.9489 18.7505 19.1397 18.6715 19.2803 18.5309C19.421 18.3902 19.5 18.1994 19.5 18.0005C19.5 17.8016 19.421 17.6109 19.2803 17.4702C19.1397 17.3295 18.9489 17.2505 18.75 17.2505H4.75Z" fill="white"/>
<path d="M1.75 11.0005C1.75 5.47753 6.227 1.00053 11.75 1.00053C12.213 1.00053 12.29 1.69353 11.893 1.93353C11.0487 2.44329 10.3314 3.1385 9.79553 3.96652C9.25967 4.79454 8.91926 5.73364 8.8001 6.7127C8.68093 7.69176 8.78613 8.6851 9.10772 9.61748C9.42932 10.5499 9.95887 11.3968 10.6563 12.0942C11.3537 12.7917 12.2007 13.3212 13.133 13.6428C14.0654 13.9644 15.0588 14.0696 16.0378 13.9504C17.0169 13.8313 17.956 13.4909 18.784 12.955C19.612 12.4191 20.3072 11.7019 20.817 10.8575C21.057 10.4615 21.75 10.5375 21.75 11.0005C21.75 12.1385 21.56 13.2315 21.21 14.2505H21.75C21.9489 14.2505 22.1397 14.3296 22.2803 14.4702C22.421 14.6109 22.5 14.8016 22.5 15.0005C22.5 15.1994 22.421 15.3902 22.2803 15.5309C22.1397 15.6715 21.9489 15.7505 21.75 15.7505H1.75C1.55109 15.7505 1.36032 15.6715 1.21967 15.5309C1.07902 15.3902 1 15.1994 1 15.0005C1 14.8016 1.07902 14.6109 1.21967 14.4702C1.36032 14.3296 1.55109 14.2505 1.75 14.2505H2.29C1.93156 13.2045 1.74908 12.1063 1.75 11.0005Z" fill="url(#paint0_linear_3507_21)"/>
<path fill-rule="evenodd" clip-rule="evenodd" d="M7.21967 20.4702C7.36032 20.3295 7.55109 20.2505 7.75 20.2505H15.75C15.9489 20.2505 16.1397 20.3295 16.2803 20.4702C16.421 20.6109 16.5 20.8016 16.5 21.0005C16.5 21.1994 16.421 21.3902 16.2803 21.5309C16.1397 21.6715 15.9489 21.7505 15.75 21.7505H7.75C7.55109 21.7505 7.36032 21.6715 7.21967 21.5309C7.07902 21.3902 7 21.1994 7 21.0005C7 20.8016 7.07902 20.6109 7.21967 20.4702Z" fill="white"/>
<path d="M19.65 1.30753C19.6147 1.21693 19.5528 1.1391 19.4725 1.08423C19.3922 1.02936 19.2972 1 19.2 1C19.1028 1 19.0078 1.02936 18.9275 1.08423C18.8472 1.1391 18.7853 1.21693 18.75 1.30753L18.32 2.40253C18.2961 2.46455 18.2596 2.52092 18.2128 2.56809C18.1659 2.61525 18.1098 2.65218 18.048 2.67653L16.957 3.10853C16.8667 3.14452 16.7892 3.20678 16.7346 3.28728C16.68 3.36777 16.6508 3.46278 16.6508 3.56003C16.6508 3.65728 16.68 3.7523 16.7346 3.83279C16.7892 3.91328 16.8667 3.97554 16.957 4.01153L18.048 4.44353C18.1097 4.46777 18.1658 4.50455 18.2126 4.55154C18.2594 4.59852 18.296 4.6547 18.32 4.71653L18.75 5.81053C18.912 6.22053 19.49 6.22053 19.65 5.81053L20.08 4.71553C20.1041 4.65361 20.1408 4.59737 20.1878 4.55037C20.2348 4.50338 20.2911 4.46666 20.353 4.44253L21.444 4.01053C21.5343 3.97454 21.6118 3.91228 21.6664 3.83179C21.721 3.7513 21.7502 3.65628 21.7502 3.55903C21.7502 3.46178 21.721 3.36677 21.6664 3.28628C21.6118 3.20578 21.5343 3.14352 21.444 3.10753L20.353 2.67553C20.291 2.65129 20.2347 2.61442 20.1877 2.56725C20.1407 2.52008 20.104 2.46364 20.08 2.40153L19.65 1.30753Z" fill="url(#paint1_linear_3507_21)"/>
<path d="M15.365 7.7913C15.3311 7.70447 15.2718 7.62988 15.1949 7.5773C15.1179 7.52472 15.0269 7.49658 14.9337 7.49658C14.8405 7.49658 14.7495 7.52472 14.6725 7.5773C14.5956 7.62988 14.5363 7.70447 14.5025 7.7913L14.352 8.17368C14.329 8.23293 14.2939 8.28677 14.2491 8.3318C14.2042 8.37683 14.1505 8.41207 14.0913 8.4353L13.7099 8.58672C13.6233 8.62121 13.5491 8.68088 13.4968 8.75801C13.4445 8.83515 13.4165 8.92621 13.4165 9.0194C13.4165 9.1126 13.4445 9.20366 13.4968 9.2808C13.5491 9.35793 13.6233 9.4176 13.7099 9.45209L14.0913 9.60255C14.2111 9.65047 14.305 9.74438 14.352 9.86513L14.5025 10.2475C14.6568 10.6404 15.2107 10.6404 15.365 10.2475L15.5154 9.86418C15.5384 9.80492 15.5735 9.75108 15.6183 9.70605C15.6632 9.66102 15.7169 9.62578 15.7761 9.60255L16.1575 9.45209C16.2441 9.4176 16.3183 9.35793 16.3706 9.2808C16.4229 9.20366 16.4509 9.1126 16.4509 9.0194C16.4509 8.92621 16.4229 8.83515 16.3706 8.75801C16.3183 8.68088 16.2441 8.62121 16.1575 8.58672L15.7761 8.4353C15.7169 8.41207 15.6632 8.37683 15.6183 8.3318C15.5735 8.28677 15.5384 8.23293 15.5154 8.17368L15.365 7.7913Z" fill="url(#paint2_linear_3507_21)"/>
<defs>
<linearGradient id="paint0_linear_3507_21" x1="11.75" y1="1" x2="11.75" y2="21.7505" gradientUnits="userSpaceOnUse">
<stop stop-color="white"/>
<stop offset="0.8125" stop-color="white"/>
</linearGradient>
<linearGradient id="paint1_linear_3507_21" x1="11.75" y1="1" x2="11.75" y2="21.7505" gradientUnits="userSpaceOnUse">
<stop stop-color="white"/>
<stop offset="0.158654" stop-color="white"/>
</linearGradient>
<linearGradient id="paint2_linear_3507_21" x1="14.9337" y1="7.49658" x2="14.9337" y2="10.5422" gradientUnits="userSpaceOnUse">
<stop stop-color="white"/>
<stop offset="1" stop-color="white" stop-opacity="0.8"/>
</linearGradient>
</defs>
</svg>
