<svg width="530" height="512" viewBox="0 0 530 512" fill="none" xmlns="http://www.w3.org/2000/svg">
<path d="M92.4419 400.967C87.5384 400.967 82.8358 402.916 79.3686 406.387C75.9014 409.857 73.9535 414.564 73.9535 419.472C73.9535 424.38 75.9014 429.087 79.3686 432.558C82.8358 436.028 87.5384 437.978 92.4419 437.978H437.558C442.462 437.978 447.164 436.028 450.631 432.558C454.099 429.087 456.047 424.38 456.047 419.472C456.047 414.564 454.099 409.857 450.631 406.387C447.164 402.916 442.462 400.967 437.558 400.967H92.4419Z" fill="#1C1352"/>
<path d="M18.4884 246.754C18.4884 110.479 128.852 0.0131274 265 0.0131274C276.413 0.0131274 278.312 17.1123 268.525 23.034C247.711 35.6118 230.03 52.7655 216.82 73.1961C203.61 93.6266 195.219 116.798 192.281 140.956C189.344 165.113 191.937 189.623 199.865 212.628C207.792 235.634 220.847 256.532 238.039 273.74C255.231 290.948 276.109 304.014 299.094 311.95C322.078 319.885 346.565 322.48 370.7 319.54C394.835 316.6 417.985 308.2 438.397 294.978C458.808 281.757 475.946 264.059 488.512 243.225C494.428 233.454 511.512 235.33 511.512 246.754C511.512 274.833 506.828 301.802 498.2 326.945H511.512C516.415 326.945 521.118 328.894 524.585 332.365C528.052 335.835 530 340.542 530 345.45C530 350.358 528.052 355.065 524.585 358.535C521.118 362.006 516.415 363.956 511.512 363.956H18.4884C13.585 363.956 8.88236 362.006 5.41512 358.535C1.94788 355.065 0 350.358 0 345.45C0 340.542 1.94788 335.835 5.41512 332.365C8.88236 328.894 13.585 326.945 18.4884 326.945H31.8C22.9639 301.135 18.4657 274.037 18.4884 246.754Z" fill="url(#paint0_linear_3508_33)"/>
<path fill-rule="evenodd" clip-rule="evenodd" d="M153.322 480.409C156.789 476.939 161.492 474.989 166.395 474.989H363.605C368.508 474.989 373.211 476.939 376.678 480.409C380.145 483.88 382.093 488.586 382.093 493.494C382.093 498.402 380.145 503.109 376.678 506.58C373.211 510.05 368.508 512 363.605 512H166.395C161.492 512 156.789 510.05 153.322 506.58C149.855 503.109 147.907 498.402 147.907 493.494C147.907 488.586 149.855 483.88 153.322 480.409Z" fill="#1C1352"/>
<path d="M459.744 7.58806C458.873 5.35248 457.348 3.43211 455.369 2.07822C453.39 0.724336 451.048 0 448.651 0C446.254 0 443.912 0.724336 441.933 2.07822C439.954 3.43211 438.429 5.35248 437.558 7.58806L426.958 34.6062C426.369 36.1363 425.469 37.5273 424.315 38.691C423.16 39.8548 421.777 40.766 420.253 41.3669L393.359 52.0261C391.131 52.914 389.222 54.4504 387.876 56.4364C386.531 58.4224 385.812 60.7668 385.812 63.1664C385.812 65.566 386.531 67.9104 387.876 69.8964C389.222 71.8824 391.131 73.4188 393.359 74.3067L420.253 84.9659C421.775 85.5641 423.157 86.4715 424.311 87.6308C425.465 88.7902 426.366 90.1764 426.958 91.702L437.558 118.695C441.552 128.812 455.8 128.812 459.744 118.695L470.344 91.6773C470.939 90.1494 471.844 88.7617 473.003 87.6022C474.161 86.4427 475.547 85.5366 477.074 84.9413L503.968 74.2821C506.196 73.3941 508.105 71.8578 509.451 69.8717C510.796 67.8857 511.515 65.5413 511.515 63.1417C511.515 60.7421 510.796 58.3978 509.451 56.4117C508.105 54.4257 506.196 52.8893 503.968 52.0014L477.074 41.3422C475.545 40.7442 474.157 39.8343 472.999 38.6704C471.84 37.5065 470.936 36.114 470.344 34.5815L459.744 7.58806Z" fill="url(#paint1_linear_3508_33)"/>
<path d="M353.801 166.354C352.953 164.188 351.468 162.326 349.541 161.014C347.614 159.702 345.334 159 343 159C340.666 159 338.386 159.702 336.459 161.014C334.532 162.326 333.047 164.188 332.199 166.354L328.43 175.896C327.854 177.375 326.976 178.718 325.853 179.842C324.729 180.966 323.384 181.845 321.902 182.425L312.349 186.203C310.18 187.064 308.32 188.553 307.01 190.478C305.7 192.403 305 194.675 305 197C305 199.326 305.7 201.598 307.01 203.523C308.32 205.448 310.18 206.937 312.349 207.798L321.902 211.552C324.902 212.748 327.254 215.091 328.43 218.105L332.199 227.646C336.063 237.451 349.937 237.451 353.801 227.646L357.57 218.081C358.146 216.602 359.024 215.259 360.147 214.135C361.271 213.011 362.616 212.132 364.098 211.552L373.651 207.798C375.82 206.937 377.68 205.448 378.99 203.523C380.3 201.598 381 199.326 381 197C381 194.675 380.3 192.403 378.99 190.478C377.68 188.553 375.82 187.064 373.651 186.203L364.098 182.425C362.616 181.845 361.271 180.966 360.147 179.842C359.024 178.718 358.146 177.375 357.57 175.896L353.801 166.354Z" fill="url(#paint2_linear_3508_33)"/>
<defs>
<linearGradient id="paint0_linear_3508_33" x1="265" y1="0" x2="265" y2="512" gradientUnits="userSpaceOnUse">
<stop stop-color="#E34F8A"/>
<stop offset="0.8125" stop-color="#1C1352"/>
</linearGradient>
<linearGradient id="paint1_linear_3508_33" x1="265" y1="0" x2="265" y2="512" gradientUnits="userSpaceOnUse">
<stop stop-color="#E3BCC4"/>
<stop offset="0.158654" stop-color="#E34F8A"/>
</linearGradient>
<linearGradient id="paint2_linear_3508_33" x1="343" y1="159" x2="343" y2="235" gradientUnits="userSpaceOnUse">
<stop stop-color="#E34F8A"/>
<stop offset="1" stop-color="#1D1253" stop-opacity="0.8"/>
</linearGradient>
</defs>
</svg>
