<svg width="88" height="23" viewBox="0 0 88 23" fill="none" xmlns="http://www.w3.org/2000/svg">
<path d="M4.75 17.2505C4.55109 17.2505 4.36032 17.3295 4.21967 17.4702C4.07902 17.6109 4 17.8016 4 18.0005C4 18.1994 4.07902 18.3902 4.21967 18.5309C4.36032 18.6715 4.55109 18.7505 4.75 18.7505H18.75C18.9489 18.7505 19.1397 18.6715 19.2803 18.5309C19.421 18.3902 19.5 18.1994 19.5 18.0005C19.5 17.8016 19.421 17.6109 19.2803 17.4702C19.1397 17.3295 18.9489 17.2505 18.75 17.2505H4.75Z" fill="#1C1352"/>
<path d="M1.75 11.0005C1.75 5.47753 6.227 1.00053 11.75 1.00053C12.213 1.00053 12.29 1.69353 11.893 1.93353C11.0487 2.44329 10.3314 3.1385 9.79553 3.96652C9.25967 4.79454 8.91926 5.73364 8.8001 6.7127C8.68093 7.69176 8.78613 8.6851 9.10772 9.61748C9.42932 10.5499 9.95887 11.3968 10.6563 12.0942C11.3537 12.7917 12.2007 13.3212 13.133 13.6428C14.0654 13.9644 15.0588 14.0696 16.0378 13.9504C17.0169 13.8313 17.956 13.4909 18.784 12.955C19.612 12.4191 20.3072 11.7019 20.817 10.8575C21.057 10.4615 21.75 10.5375 21.75 11.0005C21.75 12.1385 21.56 13.2315 21.21 14.2505H21.75C21.9489 14.2505 22.1397 14.3296 22.2803 14.4702C22.421 14.6109 22.5 14.8016 22.5 15.0005C22.5 15.1994 22.421 15.3902 22.2803 15.5309C22.1397 15.6715 21.9489 15.7505 21.75 15.7505H1.75C1.55109 15.7505 1.36032 15.6715 1.21967 15.5309C1.07902 15.3902 1 15.1994 1 15.0005C1 14.8016 1.07902 14.6109 1.21967 14.4702C1.36032 14.3296 1.55109 14.2505 1.75 14.2505H2.29C1.93156 13.2045 1.74908 12.1063 1.75 11.0005Z" fill="url(#paint0_linear_3503_14)"/>
<path fill-rule="evenodd" clip-rule="evenodd" d="M7.21967 20.4702C7.36032 20.3295 7.55109 20.2505 7.75 20.2505H15.75C15.9489 20.2505 16.1397 20.3295 16.2803 20.4702C16.421 20.6109 16.5 20.8016 16.5 21.0005C16.5 21.1994 16.421 21.3902 16.2803 21.5309C16.1397 21.6715 15.9489 21.7505 15.75 21.7505H7.75C7.55109 21.7505 7.36032 21.6715 7.21967 21.5309C7.07902 21.3902 7 21.1994 7 21.0005C7 20.8016 7.07902 20.6109 7.21967 20.4702Z" fill="#1C1352"/>
<path d="M19.65 1.30753C19.6147 1.21693 19.5528 1.1391 19.4725 1.08423C19.3922 1.02936 19.2972 1 19.2 1C19.1028 1 19.0078 1.02936 18.9275 1.08423C18.8472 1.1391 18.7853 1.21693 18.75 1.30753L18.32 2.40253C18.2961 2.46455 18.2596 2.52092 18.2128 2.56809C18.1659 2.61525 18.1098 2.65218 18.048 2.67653L16.957 3.10853C16.8667 3.14452 16.7892 3.20678 16.7346 3.28728C16.68 3.36777 16.6508 3.46278 16.6508 3.56003C16.6508 3.65728 16.68 3.7523 16.7346 3.83279C16.7892 3.91328 16.8667 3.97554 16.957 4.01153L18.048 4.44353C18.1097 4.46777 18.1658 4.50455 18.2126 4.55154C18.2594 4.59852 18.296 4.6547 18.32 4.71653L18.75 5.81053C18.912 6.22053 19.49 6.22053 19.65 5.81053L20.08 4.71553C20.1041 4.65361 20.1408 4.59737 20.1878 4.55037C20.2348 4.50338 20.2911 4.46666 20.353 4.44253L21.444 4.01053C21.5343 3.97454 21.6118 3.91228 21.6664 3.83179C21.721 3.7513 21.7502 3.65628 21.7502 3.55903C21.7502 3.46178 21.721 3.36677 21.6664 3.28628C21.6118 3.20578 21.5343 3.14352 21.444 3.10753L20.353 2.67553C20.291 2.65129 20.2347 2.61442 20.1877 2.56725C20.1407 2.52008 20.104 2.46364 20.08 2.40153L19.65 1.30753Z" fill="url(#paint1_linear_3503_14)"/>
<path d="M16.033 7.70668C15.9977 7.6208 15.9358 7.54702 15.8555 7.495C15.7752 7.44299 15.6803 7.41516 15.583 7.41516C15.4858 7.41516 15.3908 7.44299 15.3105 7.495C15.2302 7.54702 15.1683 7.6208 15.133 7.70668L14.976 8.08491C14.952 8.14352 14.9154 8.19677 14.8686 8.24132C14.8218 8.28586 14.7657 8.32072 14.704 8.3437L14.306 8.49347C14.2157 8.52759 14.1382 8.58661 14.0836 8.66291C14.029 8.73921 13.9998 8.82928 13.9998 8.92147C13.9998 9.01365 14.029 9.10372 14.0836 9.18002C14.1382 9.25632 14.2157 9.31535 14.306 9.34946L14.704 9.49829C14.829 9.54568 14.927 9.63858 14.976 9.75802L15.133 10.1362C15.294 10.5249 15.872 10.5249 16.033 10.1362L16.19 9.75707C16.214 9.69847 16.2506 9.64521 16.2974 9.60067C16.3442 9.55613 16.4003 9.52127 16.462 9.49829L16.86 9.34946C16.9504 9.31535 17.0278 9.25632 17.0824 9.18002C17.137 9.10372 17.1662 9.01365 17.1662 8.92147C17.1662 8.82928 17.137 8.73921 17.0824 8.66291C17.0278 8.58661 16.9504 8.52759 16.86 8.49347L16.462 8.3437C16.4003 8.32072 16.3442 8.28586 16.2974 8.24132C16.2506 8.19677 16.214 8.14352 16.19 8.08491L16.033 7.70668Z" fill="url(#paint2_linear_3503_14)"/>
<path d="M25.198 16.126C24.7873 16.126 24.4653 16.014 24.232 15.79C24.008 15.5567 23.896 15.2253 23.896 14.796V7.46C23.896 7.03067 24.008 6.704 24.232 6.48C24.4653 6.24667 24.8013 6.13 25.24 6.13H29.902C30.238 6.13 30.49 6.214 30.658 6.382C30.826 6.55 30.91 6.79267 30.91 7.11C30.91 7.43667 30.826 7.68867 30.658 7.866C30.49 8.034 30.238 8.118 29.902 8.118H26.472V10.106H29.594C29.9207 10.106 30.168 10.19 30.336 10.358C30.5133 10.526 30.602 10.7687 30.602 11.086C30.602 11.4127 30.5133 11.66 30.336 11.828C30.168 11.996 29.9207 12.08 29.594 12.08H26.472V14.796C26.472 15.6827 26.0473 16.126 25.198 16.126ZM34.1087 16.154C33.2687 16.154 32.5407 16.0093 31.9247 15.72C31.318 15.4213 30.8513 15.0013 30.5247 14.46C30.198 13.9187 30.0347 13.2793 30.0347 12.542C30.0347 11.8327 30.1887 11.212 30.4967 10.68C30.814 10.1387 31.2433 9.71867 31.7847 9.42C32.3353 9.112 32.9607 8.958 33.6607 8.958C34.174 8.958 34.6407 9.042 35.0607 9.21C35.4807 9.36867 35.84 9.60667 36.1387 9.924C36.4373 10.232 36.6613 10.6053 36.8107 11.044C36.9693 11.4827 37.0487 11.9727 37.0487 12.514C37.0487 12.7007 36.9973 12.8407 36.8947 12.934C36.792 13.018 36.6287 13.06 36.4047 13.06H32.1207V11.884H35.2287L35.0047 12.066C35.0047 11.7207 34.958 11.4407 34.8647 11.226C34.7713 11.0113 34.6313 10.848 34.4447 10.736C34.2673 10.624 34.0433 10.568 33.7727 10.568C33.4833 10.568 33.2313 10.638 33.0167 10.778C32.8113 10.9087 32.6527 11.1047 32.5407 11.366C32.4287 11.6273 32.3727 11.954 32.3727 12.346V12.472C32.3727 13.1347 32.5173 13.6107 32.8067 13.9C33.1053 14.18 33.5627 14.32 34.1787 14.32C34.384 14.32 34.6173 14.2967 34.8787 14.25C35.1493 14.194 35.406 14.1193 35.6487 14.026C35.8913 13.9327 36.1013 13.9187 36.2787 13.984C36.456 14.04 36.5913 14.1427 36.6847 14.292C36.7873 14.432 36.8433 14.5953 36.8527 14.782C36.862 14.9593 36.82 15.1367 36.7267 15.314C36.6333 15.482 36.4793 15.6127 36.2647 15.706C35.938 15.8553 35.588 15.9673 35.2147 16.042C34.8507 16.1167 34.482 16.154 34.1087 16.154ZM38.1363 16.126C37.7256 16.126 37.4083 16.0187 37.1843 15.804C36.9696 15.5893 36.8623 15.2767 36.8623 14.866V10.232C36.8623 9.83067 36.965 9.52267 37.1703 9.308C37.385 9.09333 37.6883 8.986 38.0803 8.986C38.4723 8.986 38.771 9.09333 38.9763 9.308C39.1816 9.52267 39.2843 9.83067 39.2843 10.232V10.806H39.1443C39.2376 10.246 39.4756 9.80267 39.8583 9.476C40.2503 9.14933 40.7356 8.97667 41.3143 8.958C41.585 8.94867 41.7856 9.01867 41.9163 9.168C42.0563 9.308 42.131 9.574 42.1403 9.966C42.1403 10.302 42.0703 10.568 41.9303 10.764C41.7903 10.96 41.5243 11.0767 41.1323 11.114L40.8103 11.142C40.3156 11.1887 39.9563 11.3287 39.7323 11.562C39.5083 11.786 39.3963 12.122 39.3963 12.57V14.866C39.3963 15.2767 39.289 15.5893 39.0743 15.804C38.8596 16.0187 38.547 16.126 38.1363 16.126ZM42.9046 16.126C42.5126 16.126 42.2093 16.0093 41.9946 15.776C41.7799 15.5427 41.6726 15.2067 41.6726 14.768V10.344C41.6726 9.90533 41.7799 9.56933 41.9946 9.336C42.2093 9.10267 42.5126 8.986 42.9046 8.986C43.3059 8.986 43.6139 9.10267 43.8286 9.336C44.0526 9.56933 44.1646 9.90533 44.1646 10.344V14.768C44.1646 15.2067 44.0573 15.5427 43.8426 15.776C43.6279 16.0093 43.3153 16.126 42.9046 16.126ZM42.9046 7.992C42.4659 7.992 42.1253 7.88933 41.8826 7.684C41.6493 7.47867 41.5326 7.18 41.5326 6.788C41.5326 6.40533 41.6493 6.11133 41.8826 5.906C42.1253 5.70067 42.4659 5.598 42.9046 5.598C43.3619 5.598 43.7073 5.70067 43.9406 5.906C44.1739 6.11133 44.2906 6.40533 44.2906 6.788C44.2906 7.18 44.1739 7.47867 43.9406 7.684C43.7073 7.88933 43.3619 7.992 42.9046 7.992ZM46.7441 16.154C46.2121 16.154 45.7408 16.056 45.3301 15.86C44.9288 15.664 44.6114 15.398 44.3781 15.062C44.1541 14.7167 44.0421 14.3247 44.0421 13.886C44.0421 13.382 44.1728 12.9853 44.4341 12.696C44.6954 12.4067 45.1154 12.2013 45.6941 12.08C46.2728 11.9493 47.0428 11.884 48.0041 11.884H48.7741V13.06H48.0041C47.6401 13.06 47.3368 13.088 47.0941 13.144C46.8608 13.1907 46.6881 13.27 46.5761 13.382C46.4641 13.4847 46.4081 13.62 46.4081 13.788C46.4081 14.0027 46.4828 14.18 46.6321 14.32C46.7908 14.46 47.0148 14.53 47.3041 14.53C47.5374 14.53 47.7428 14.4787 47.9201 14.376C48.1068 14.2733 48.2561 14.1333 48.3681 13.956C48.4801 13.7693 48.5361 13.5547 48.5361 13.312V11.688C48.5361 11.352 48.4474 11.114 48.2701 10.974C48.1021 10.834 47.8081 10.764 47.3881 10.764C47.1641 10.764 46.9121 10.792 46.6321 10.848C46.3521 10.8947 46.0394 10.9833 45.6941 11.114C45.4421 11.2073 45.2274 11.2213 45.0501 11.156C44.8728 11.0907 44.7328 10.9787 44.6301 10.82C44.5368 10.6613 44.4901 10.4887 44.4901 10.302C44.4994 10.1153 44.5601 9.938 44.6721 9.77C44.7934 9.602 44.9754 9.47133 45.2181 9.378C45.6661 9.21 46.0768 9.098 46.4501 9.042C46.8328 8.986 47.1828 8.958 47.5001 8.958C48.2654 8.958 48.8954 9.07 49.3901 9.294C49.8941 9.50867 50.2674 9.84467 50.5101 10.302C50.7621 10.75 50.8881 11.3287 50.8881 12.038V14.866C50.8881 15.2767 50.7901 15.5893 50.5941 15.804C50.3981 16.0187 50.1134 16.126 49.7401 16.126C49.3574 16.126 49.0634 16.0187 48.8581 15.804C48.6621 15.5893 48.5641 15.2767 48.5641 14.866V14.502L48.6481 14.698C48.6014 14.9967 48.4941 15.2533 48.3261 15.468C48.1581 15.6827 47.9388 15.8507 47.6681 15.972C47.3974 16.0933 47.0894 16.154 46.7441 16.154ZM55.263 16C54.8523 16 54.5303 15.888 54.297 15.664C54.073 15.4307 53.961 15.1087 53.961 14.698V7.418C53.961 6.998 54.073 6.676 54.297 6.452C54.521 6.228 54.8383 6.116 55.249 6.116C55.669 6.116 55.9863 6.228 56.201 6.452C56.425 6.676 56.537 6.998 56.537 7.418V13.858H59.953C60.3077 13.858 60.5783 13.9513 60.765 14.138C60.961 14.3153 61.059 14.5767 61.059 14.922C61.059 15.2673 60.961 15.5333 60.765 15.72C60.5783 15.9067 60.3077 16 59.953 16H55.263ZM63.1617 16.154C62.5644 16.154 62.0744 16.0467 61.6917 15.832C61.3091 15.608 61.0197 15.2767 60.8237 14.838C60.6371 14.3993 60.5437 13.844 60.5437 13.172V10.232C60.5437 9.82133 60.6511 9.51333 60.8657 9.308C61.0804 9.09333 61.3884 8.986 61.7897 8.986C62.1911 8.986 62.4991 9.09333 62.7137 9.308C62.9284 9.51333 63.0357 9.82133 63.0357 10.232V13.242C63.0357 13.578 63.1057 13.83 63.2457 13.998C63.3857 14.166 63.6051 14.25 63.9037 14.25C64.2397 14.25 64.5151 14.1287 64.7297 13.886C64.9444 13.6433 65.0517 13.3213 65.0517 12.92V10.232C65.0517 9.82133 65.1591 9.51333 65.3737 9.308C65.5884 9.09333 65.8964 8.986 66.2977 8.986C66.6991 8.986 67.0071 9.09333 67.2217 9.308C67.4364 9.51333 67.5437 9.82133 67.5437 10.232V14.866C67.5437 15.706 67.1424 16.126 66.3397 16.126C65.9477 16.126 65.6444 16.0187 65.4297 15.804C65.2151 15.5893 65.1077 15.2767 65.1077 14.866V14.054L65.3317 14.74C65.1264 15.1973 64.8371 15.5473 64.4637 15.79C64.0997 16.0327 63.6657 16.154 63.1617 16.154ZM68.9659 16.126C68.5739 16.126 68.2706 16.0187 68.0559 15.804C67.8413 15.5893 67.7339 15.2767 67.7339 14.866V10.232C67.7339 9.83067 67.8366 9.52267 68.0419 9.308C68.2566 9.09333 68.5599 8.986 68.9519 8.986C69.3439 8.986 69.6426 9.09333 69.8479 9.308C70.0533 9.52267 70.1559 9.83067 70.1559 10.232V10.89L70.0019 10.316C70.2259 9.87733 70.5433 9.54133 70.9539 9.308C71.3739 9.07467 71.8499 8.958 72.3819 8.958C72.9326 8.958 73.3853 9.06533 73.7399 9.28C74.0946 9.48533 74.3606 9.812 74.5379 10.26C74.7153 10.6987 74.8039 11.254 74.8039 11.926V14.866C74.8039 15.2767 74.6966 15.5893 74.4819 15.804C74.2673 16.0187 73.9593 16.126 73.5579 16.126C73.1566 16.126 72.8486 16.0187 72.6339 15.804C72.4193 15.5893 72.3119 15.2767 72.3119 14.866V12.024C72.3119 11.604 72.2373 11.3053 72.0879 11.128C71.9479 10.9507 71.7379 10.862 71.4579 10.862C71.0846 10.862 70.7859 10.9833 70.5619 11.226C70.3379 11.4593 70.2259 11.7767 70.2259 12.178V14.866C70.2259 15.706 69.8059 16.126 68.9659 16.126ZM77.3582 16.154C76.8262 16.154 76.3548 16.056 75.9442 15.86C75.5428 15.664 75.2255 15.398 74.9922 15.062C74.7682 14.7167 74.6562 14.3247 74.6562 13.886C74.6562 13.382 74.7868 12.9853 75.0482 12.696C75.3095 12.4067 75.7295 12.2013 76.3082 12.08C76.8868 11.9493 77.6568 11.884 78.6182 11.884H79.3882V13.06H78.6182C78.2542 13.06 77.9508 13.088 77.7082 13.144C77.4748 13.1907 77.3022 13.27 77.1902 13.382C77.0782 13.4847 77.0222 13.62 77.0222 13.788C77.0222 14.0027 77.0968 14.18 77.2462 14.32C77.4048 14.46 77.6288 14.53 77.9182 14.53C78.1515 14.53 78.3568 14.4787 78.5342 14.376C78.7208 14.2733 78.8702 14.1333 78.9822 13.956C79.0942 13.7693 79.1502 13.5547 79.1502 13.312V11.688C79.1502 11.352 79.0615 11.114 78.8842 10.974C78.7162 10.834 78.4222 10.764 78.0022 10.764C77.7782 10.764 77.5262 10.792 77.2462 10.848C76.9662 10.8947 76.6535 10.9833 76.3082 11.114C76.0562 11.2073 75.8415 11.2213 75.6642 11.156C75.4868 11.0907 75.3468 10.9787 75.2442 10.82C75.1508 10.6613 75.1042 10.4887 75.1042 10.302C75.1135 10.1153 75.1742 9.938 75.2862 9.77C75.4075 9.602 75.5895 9.47133 75.8322 9.378C76.2802 9.21 76.6908 9.098 77.0642 9.042C77.4468 8.986 77.7968 8.958 78.1142 8.958C78.8795 8.958 79.5095 9.07 80.0042 9.294C80.5082 9.50867 80.8815 9.84467 81.1242 10.302C81.3762 10.75 81.5022 11.3287 81.5022 12.038V14.866C81.5022 15.2767 81.4042 15.5893 81.2082 15.804C81.0122 16.0187 80.7275 16.126 80.3542 16.126C79.9715 16.126 79.6775 16.0187 79.4722 15.804C79.2762 15.5893 79.1782 15.2767 79.1782 14.866V14.502L79.2622 14.698C79.2155 14.9967 79.1082 15.2533 78.9402 15.468C78.7722 15.6827 78.5528 15.8507 78.2822 15.972C78.0115 16.0933 77.7035 16.154 77.3582 16.154ZM82.9352 16.126C82.5245 16.126 82.2072 16.0187 81.9832 15.804C81.7685 15.5893 81.6612 15.2767 81.6612 14.866V10.232C81.6612 9.83067 81.7639 9.52267 81.9692 9.308C82.1839 9.09333 82.4872 8.986 82.8792 8.986C83.2712 8.986 83.5699 9.09333 83.7752 9.308C83.9805 9.52267 84.0832 9.83067 84.0832 10.232V10.806H83.9432C84.0365 10.246 84.2745 9.80267 84.6572 9.476C85.0492 9.14933 85.5345 8.97667 86.1132 8.958C86.3839 8.94867 86.5845 9.01867 86.7152 9.168C86.8552 9.308 86.9299 9.574 86.9392 9.966C86.9392 10.302 86.8692 10.568 86.7292 10.764C86.5892 10.96 86.3232 11.0767 85.9312 11.114L85.6092 11.142C85.1145 11.1887 84.7552 11.3287 84.5312 11.562C84.3072 11.786 84.1952 12.122 84.1952 12.57V14.866C84.1952 15.2767 84.0879 15.5893 83.8732 15.804C83.6585 16.0187 83.3459 16.126 82.9352 16.126Z" fill="#1C1352"/>
<defs>
<linearGradient id="paint0_linear_3503_14" x1="11.75" y1="1" x2="11.75" y2="21.7505" gradientUnits="userSpaceOnUse">
<stop stop-color="#C43677"/>
<stop offset="0.8125" stop-color="#1C1352"/>
</linearGradient>
<linearGradient id="paint1_linear_3503_14" x1="11.75" y1="1" x2="11.75" y2="21.7505" gradientUnits="userSpaceOnUse">
<stop stop-color="#E3BCC4"/>
<stop offset="0.158654" stop-color="#CC477D"/>
</linearGradient>
<linearGradient id="paint2_linear_3503_14" x1="15.583" y1="7.41516" x2="15.583" y2="10.4277" gradientUnits="userSpaceOnUse">
<stop stop-color="#CC477D"/>
<stop offset="1" stop-color="#1D1253" stop-opacity="0.8"/>
</linearGradient>
</defs>
</svg>
